<?xml version="1.0" encoding="utf-8"?>

<!DOCTYPE svg PUBLIC "-//W3C//DTD SVG 1.1//EN" "http://www.w3.org/Graphics/SVG/1.1/DTD/svg11.dtd">
<svg version="1.1" id="Layer_1" xmlns="http://www.w3.org/2000/svg" xmlns:xlink="http://www.w3.org/1999/xlink" x="0px" y="0px"
	 viewBox="0 0 1190 1387.68" enable-background="new 0 0 1190 1387.68" xml:space="preserve">
<path d="M37.07,30.12h1115.86c-209.85,50.29-327.92,204.4-348.96,362.33c-2.96,22.43,0,44.86,10.57,68.13
	c-49.05,76.6-161.97,189.58-171.69,243.75c-5.93,32.58,32.56,44.01,51.17,55.44c17.76,5.92,37.21,1.69,49.05,16.08
	c8.46,10.58-2.96,28.35-5.5,41.47c-0.42,21.58-25.79,32.16-23.25,52.05c2.54,16.93,16.91,23.7,30.02,34.28
	c13.96,11-35.52,32.16-19.45,51.63c16.49,19.04,40.6,41.04,32.13,68.13c-12.26,41.89-35.94,85.48-16.49,118.06
	c19.46,32.16,46.52,51.21,88.39,59.67c65.54,0,131.52,1.28,197.49,1.28c35.98,49.46,53.02,101.23,52.28,155.14H111.31
	c-0.74-53.91,16.3-105.68,52.28-155.14c65.97,0,131.95-1.28,197.49-1.28c41.87-8.46,68.93-27.51,88.39-59.67
	c19.46-32.58-4.23-76.17-16.49-118.06c-8.47-27.09,15.64-49.09,32.13-68.13c16.07-19.47-33.41-40.63-19.45-51.63
	c13.11-10.58,27.48-17.35,30.02-34.28c2.54-19.89-22.83-30.47-23.25-52.05c-2.54-13.12-13.96-30.89-5.5-41.47
	c11.84-14.39,31.29-10.16,49.05-16.08c18.61-11.43,57.1-22.86,51.17-55.44c-9.72-54.17-122.64-167.15-171.69-243.75
	c10.57-23.27,13.53-45.7,10.57-68.13C364.99,234.52,246.92,80.41,37.07,30.12z"/>
</svg>
